<?xml version="1.0" encoding="utf-8"?>
<!-- Generator: Adobe Illustrator 25.0.0, SVG Export Plug-In . SVG Version: 6.00 Build 0)  -->
<svg version="1.1" id="Layer_1" xmlns="http://www.w3.org/2000/svg" xmlns:xlink="http://www.w3.org/1999/xlink" x="0px" y="0px"
	 viewBox="0 0 649.6 233.9" style="enable-background:new 0 0 649.6 233.9;" xml:space="preserve">
<style type="text/css">
	.st0{fill:none;stroke:#1d3557;stroke-width:2;stroke-miterlimit:10;}
	.st1{fill:none;stroke:#1d3557;stroke-width:2;stroke-linecap:round;stroke-miterlimit:10;}
</style>
<g>
	<path class="st0" d="M386.6,3.5H133.2c-4.5,0-8.1,3.7-8.1,8.1v171.7c0,4.5,3.6,8.1,8.1,8.1H240l-2.2,32.1h-9.7
		c-3.3,0-6.1,2.7-6.1,6.1v4.4h15h46.4h15.7v-4.4c0-3.3-2.7-6.1-6.1-6.1h-10.4l-2.2-32.1h106.1c4.5,0,8.1-3.6,8.1-8.1V11.6
		C394.8,7.1,391.1,3.5,386.6,3.5z M254.5,175.5c0-3.2,2.6-5.9,5.9-5.9c3.2,0,5.9,2.6,5.9,5.9c0,3.2-2.6,5.9-5.9,5.9
		C257.2,181.3,254.5,178.7,254.5,175.5z M378.2,152.1c0,2.5-2,4.5-4.5,4.5H146.5c-2.5,0-4.5-2-4.5-4.5V24c0-2.5,2-4.5,4.5-4.5h227.1
		c2.5,0,4.5,2,4.5,4.5V152.1z"/>
	<g>
		<path class="st0" d="M558.1,217.1c-9.3,0-16.8,7.5-16.8,16.8h33.6C574.9,224.6,567.4,217.1,558.1,217.1z"/>
		<line class="st0" x1="558.1" y1="217.1" x2="558.1" y2="220.6"/>
	</g>
	<path class="st0" d="M634.2,192.6v-7.9h-46.6V228c0,3.2,2.7,5.9,5.9,5.9h34.8c3.2,0,5.9-2.7,5.9-5.9v-4.1c7.7-1,13.7-7.6,13.7-15.6
		C647.9,200.3,642,193.7,634.2,192.6z M623.3,211.5c0,2-1.7,3.7-3.7,3.7h-6.4c-2,0-3.7-1.6-3.7-3.7v-10.7c0-2,1.7-3.7,3.7-3.7h6.4
		c2,0,3.7,1.6,3.7,3.7V211.5z M634.2,217.2v-17.9c4.1,1,7.1,4.6,7.1,9S638.3,216.3,634.2,217.2z"/>
	<line class="st0" x1="616.5" y1="197.1" x2="616.5" y2="184.8"/>
	<path class="st0" d="M612,180.3c-2.5,0-4.4,2-4.4,4.4h8.9C616.4,182.3,614.4,180.3,612,180.3z"/>
	<line class="st0" x1="634.2" y1="192.6" x2="634.2" y2="223.9"/>
	<line class="st0" x1="323.1" y1="220.3" x2="508.9" y2="220.3"/>
	<line class="st0" x1="240" y1="191.4" x2="280.6" y2="191.4"/>
	<line class="st0" x1="237.9" y1="223.5" x2="282.8" y2="223.5"/>
	<path class="st0" d="M80.5,207.6v-5h-64c-8.7,0-15.7,7-15.7,15.7s7,15.7,15.7,15.7h64v-5H40.7H28.1H16.6c-5.9,0-10.7-4.8-10.7-10.7
		s4.8-10.7,10.7-10.7h11.5h12.6H80.5z"/>
	<line class="st0" x1="66.6" y1="214.7" x2="15.2" y2="214.7"/>
	<line class="st0" x1="66.6" y1="221.2" x2="15.2" y2="221.2"/>
	<circle class="st0" cx="74.9" cy="141" r="40.1"/>
	<line class="st1" x1="80.5" y1="125.3" x2="69.6" y2="157.6"/>
	<line class="st1" x1="65" y1="152.8" x2="53.7" y2="141.5"/>
	<line class="st1" x1="65" y1="130.2" x2="53.7" y2="141.5"/>
	<line class="st1" x1="85" y1="130.2" x2="96.3" y2="141.5"/>
	<line class="st1" x1="85" y1="152.8" x2="96.3" y2="141.5"/>
	<path class="st0" d="M508.9,220.3c2.2,0,4.1-1.8,4.1-4.1V96.7c0-2.2-1.8-4.1-4-4.1H394.8v11.9h107.3c1.1,0,2.1,0.9,2.1,2.1v101.2
		c0,1.1-0.9,2.1-2.1,2.1H329.9c-1.1,0-2.1-0.9-2.1-2.1v-16.4h-8.7v24.8c0,2.2,1.8,4.1,4,4.1h-17.2v6.4c0,4,3.3,7.2,7.2,7.2H519
		c4,0,7.2-3.3,7.2-7.2v-6.4H508.9z M423.7,227.4h-15.9c-3.9,0-7.2-3.1-7.2-7h30.2C430.9,224.3,427.7,227.4,423.7,227.4z"/>
	<g>
		<path class="st0" d="M120.4,136.4h4.7v-4.9h-11.2c0.7,3,1.1,6.2,1.1,9.5c0,0.9,0,1.9-0.1,2.8h10.2v-5.3h-4.7c-0.6,0-1-0.5-1-1
			S119.8,136.4,120.4,136.4z"/>
		<path class="st0" d="M149.6,191.4V217h-45.6v-48.3c-1.2,1.2-2.4,2.4-3.7,3.4v56.1c0,3.1,2.5,5.6,5.6,5.6h41.8
			c3.1,0,5.6-2.5,5.6-5.6v-36.9H149.6z M126.8,227.6c-1.7,0-3.1-1.4-3.1-3.1s1.4-3.1,3.1-3.1c1.7,0,3.1,1.4,3.1,3.1
			S128.5,227.6,126.8,227.6z"/>
	</g>
	<path class="st0" d="M78.5,207.6H40.7H28.1H16.6c-5.8,0-10.5,4.8-10.7,10.7v0.2c0.1,5.8,4.9,10.4,10.7,10.4h11.5h12.6h37.8
		c-6.9,0-12.6-4.8-12.6-10.7S71.6,207.6,78.5,207.6z"/>
</g>
</svg>
