<?xml version="1.0" encoding="utf-8"?>
<!-- Generator: Adobe Illustrator 25.0.0, SVG Export Plug-In . SVG Version: 6.00 Build 0)  -->
<svg version="1.1" id="Layer_1" xmlns="http://www.w3.org/2000/svg" xmlns:xlink="http://www.w3.org/1999/xlink" x="0px" y="0px"
	 viewBox="0 0 51.1 49.23" style="enable-background:new 0 0 51.1 49.23;" xml:space="preserve">
<style type="text/css">
	.st0{fill:none;stroke:#ef233c;stroke-width:2;stroke-miterlimit:10;}
	.st1{fill:#ef233c;}
	.st2{fill:none;stroke:#ef233c;stroke-width:2;stroke-linejoin:round;stroke-miterlimit:10;}
</style>
<g>
	<path class="st0" d="M46.84,47.55H4.16c-1.28,0-2.33-1.05-2.33-2.33V4.33C1.83,3.05,2.88,2,4.16,2h42.68
		c1.28,0,2.33,1.05,2.33,2.33v40.89C49.17,46.5,48.12,47.55,46.84,47.55z"/>
	<line class="st0" x1="1.83" y1="11.4" x2="49.17" y2="11.4"/>
	<circle class="st1" cx="6.62" cy="6.62" r="1.01"/>
	<circle class="st1" cx="10.38" cy="6.62" r="1.01"/>
	<circle class="st1" cx="14.15" cy="6.62" r="1.01"/>
	<path class="st2" d="M38.26,32.25v-4.93h-2.35c-0.27-1.13-0.71-2.19-1.31-3.16l1.66-1.66l-3.48-3.48l-1.66,1.66
		c-0.96-0.6-2.02-1.04-3.16-1.31v-2.35h-4.93v2.35c-1.13,0.27-2.19,0.71-3.16,1.31l-1.66-1.66l-3.48,3.48l1.66,1.66
		c-0.6,0.96-1.04,2.02-1.31,3.16h-2.35v4.93h2.35c0.27,1.13,0.71,2.19,1.31,3.16l-1.66,1.66l3.48,3.48l1.66-1.66
		c0.96,0.6,2.02,1.04,3.16,1.31v2.35h4.93V40.2c1.13-0.27,2.19-0.71,3.16-1.31l1.66,1.66l3.48-3.48l-1.66-1.66
		c0.6-0.96,1.04-2.02,1.31-3.16H38.26z M25.5,34.92c-2.83,0-5.13-2.3-5.13-5.13s2.3-5.13,5.13-5.13s5.13,2.3,5.13,5.13
		S28.33,34.92,25.5,34.92z"/>
</g>
</svg>
